<svg xmlns="http://www.w3.org/2000/svg" width="24" height="24" viewBox="0 0 24 24" xmlns:xlink="http://www.w3.org/1999/xlink">
  <defs>
    <polygon id="a" points=".002 .019 11 .019 11 15.998 .002 15.998"/>
  </defs>
  <g fill="none" fill-rule="evenodd" transform="translate(7 4)">
    <polyline fill="#000000" points="3.905 .756 3.905 .019 2.2 .019 2.2 2.172 3.905 2.172 3.905 1.435 2.915 1.435 2.915 .756 3.905 .756"/>
    <polyline fill="#000000" points="6.325 .019 4.62 .019 4.62 .775 5.331 1.435 4.62 1.435 4.62 2.172 6.325 2.172 6.325 1.455 5.678 .756 6.325 .756 6.325 .019"/>
    <mask id="b" fill="white">
      <use xlink:href="#a"/>
    </mask>
    <polyline fill="#000000" points="8.8 .019 7.095 .019 7.095 .775 7.779 1.435 7.095 1.435 7.095 2.172 8.8 2.172 8.8 1.455 8.126 .756 8.8 .756 8.8 .019" mask="url(#b)"/>
    <polyline fill="#0071BC" points="1.001 14.716 0 3.154 11 3.154 9.998 14.714 5.493 16 1.001 14.716" mask="url(#b)"/>
    <polyline fill="#29ABE2" points="5.509 15.016 9.145 13.986 9.996 4.117 5.509 4.117 5.509 15.016"/>
    <polyline fill="#B3B3B3" points="2.291 8.365 2.412 9.781 5.509 8.365 5.509 6.946 2.291 8.365"/>
    <polyline fill="#E6E6E6" points="8.94 5.432 5.509 6.946 5.509 8.365 8.821 6.848 8.94 5.432"/>
    <polyline fill="#E6E6E6" points="5.509 12.069 5.499 12.071 3.963 11.646 3.862 10.517 2.48 10.517 2.673 12.742 5.498 13.547 5.509 13.545 5.509 12.069"/>
    <polyline fill="#FFFFFF" points="5.509 8.365 5.509 9.781 7.191 9.781 7.038 11.632 5.509 12.071 5.509 13.546 8.325 12.74 8.696 8.365 5.509 8.365"/>
    <polyline fill="#E6E6E6" points="5.509 8.365 2.291 8.365 2.412 9.781 5.509 9.781 5.509 8.365"/>
    <polyline fill="#E6E6E6" points="5.509 6.848 5.509 5.432 2.047 5.432 2.169 6.848 5.509 6.848"/>
    <polyline fill="#FFFFFF" points="5.509 5.432 5.509 6.848 8.821 6.848 8.94 5.432 5.509 5.432"/>
  </g>
</svg>
