<svg xmlns="http://www.w3.org/2000/svg" width="24" height="24" viewBox="0 0 24 24" xmlns:xlink="http://www.w3.org/1999/xlink">
  <defs>
    <path id="a" d="M11.9992635,4 C7.582185,4 4,7.67233648 4,12.2027096 C4,15.8267054 6.2920285,18.9008334 9.471009,19.9854641 C9.871267,20.0609955 10.0171275,19.8077134 10.0171275,19.5901831 C10.0171275,19.3958156 10.010252,18.8796845 10.006323,18.1953702 C7.781086,18.6908561 7.311581,17.0956329 7.311581,17.0956329 C6.9476655,16.1479658 6.423156,15.8956907 6.423156,15.8956907 C5.6967985,15.3871132 6.478161,15.3971839 6.478161,15.3971839 C7.281132,15.455091 7.70349,16.2426316 7.70349,16.2426316 C8.4170785,17.4959493 9.5761075,17.1339023 10.031861,16.923925 C10.104546,16.3941981 10.311305,16.0326543 10.539673,15.8277129 C8.763314,15.6207565 6.8956075,14.916804 6.8956075,11.7736913 C6.8956075,10.8783922 7.207465,10.1457378 7.7192055,9.57270601 C7.6366985,9.36524692 7.362166,8.53087635 7.797784,7.4019339 C7.797784,7.4019339 8.4691365,7.18138217 9.997483,8.24285003 C10.63544,8.06056771 11.320053,7.96993029 12.0002455,7.96640513 C12.679947,7.96993029 13.364069,8.06056771 14.003008,8.24285003 C15.5303725,7.18138217 16.200743,7.4019339 16.200743,7.4019339 C16.637343,8.53087635 16.3628105,9.36524692 16.2807945,9.57270601 C16.7935175,10.1457378 17.102919,10.8783922 17.102919,11.7736913 C17.102919,14.9248608 15.232266,15.6182389 13.450505,15.8211669 C13.7373155,16.0744484 13.993186,16.5749702 13.993186,17.340355 C13.993186,18.4365671 13.9833635,19.3212912 13.9833635,19.5901831 C13.9833635,19.8097279 14.127751,20.0650239 14.533411,19.9849609 C17.709936,18.897812 20,15.8256985 20,12.2027096 C20,7.67233648 16.417815,4 11.9992635,4"/>
  </defs>
  <g fill="none" fill-rule="evenodd">
    <mask id="b" fill="white">
      <use xlink:href="#a"/>
    </mask>
    <use fill="#FFFFFF" fill-opacity=".32" fill-rule="nonzero" xlink:href="#a"/>
    <rect width="24" height="24" fill="#8360E3" mask="url(#b)"/>
  </g>
</svg>
