<svg xmlns="http://www.w3.org/2000/svg" width="24" height="24" viewBox="0 0 24 24">
  <g fill="none" fill-rule="evenodd">
    <rect width="24" height="24"/>
    <g fill-rule="nonzero" transform="translate(4 4)">
      <rect width="16" height="16" fill="#F7DF1E"/>
      <path fill="#000000" d="M10.5351111,13.2393651 C10.8573968,13.7655873 11.2766984,14.152381 12.0182857,14.152381 C12.6412698,14.152381 13.0392381,13.8410159 13.0392381,13.4107937 C13.0392381,12.8952381 12.6303492,12.7126349 11.9446349,12.4126984 L11.5687619,12.2514286 C10.4838095,11.7892063 9.76304762,11.2101587 9.76304762,9.98603175 C9.76304762,8.8584127 10.6222222,8 11.9649524,8 C12.9208889,8 13.608127,8.33269841 14.1033651,9.20380952 L12.9325714,9.95555556 C12.6747937,9.49333333 12.3966984,9.3112381 11.9649524,9.3112381 C11.5245714,9.3112381 11.2454603,9.59060317 11.2454603,9.95555556 C11.2454603,10.4066032 11.5248254,10.5892063 12.1699048,10.8685714 L12.5457778,11.0295873 C13.8232381,11.5773968 14.5445079,12.135873 14.5445079,13.3914921 C14.5445079,14.7451429 13.4811429,15.4867302 12.0530794,15.4867302 C10.6567619,15.4867302 9.75466667,14.8213333 9.31326984,13.9492063 L10.5351111,13.2393651 Z M5.22387302,13.3696508 C5.46006349,13.7886984 5.67492063,14.1429841 6.19149206,14.1429841 C6.68546032,14.1429841 6.99707937,13.9497143 6.99707937,13.1982222 L6.99707937,8.08584127 L8.50057143,8.08584127 L8.50057143,13.2185397 C8.50057143,14.7753651 7.58780952,15.4839365 6.25549206,15.4839365 C5.05168254,15.4839365 4.35453968,14.8609524 4,14.1106032 L5.22387302,13.3696508 Z"/>
    </g>
  </g>
</svg>
