<svg xmlns="http://www.w3.org/2000/svg" width="24" height="24" viewBox="0 0 24 24" xmlns:xlink="http://www.w3.org/1999/xlink">
  <defs>
    <path id="a" d="M16.5,7 C16.6279612,7 16.7559223,7.04881554 16.8535534,7.14644661 C16.9511845,7.24407768 17,7.37203884 17,7.5 L17,13.5 C17,13.7761424 16.7761424,14 16.5,14 C16.2238576,14 16,13.7761424 16,13.5 L16,8.70710678 L6.85355339,17.8535534 C6.65829124,18.0488155 6.34170876,18.0488155 6.14644661,17.8535534 C5.95118446,17.6582912 5.95118446,17.3417088 6.14644661,17.1464466 L15.2928932,8 L10.5,8 C10.2238576,8 10,7.77614237 10,7.5 C10,7.22385763 10.2238576,7 10.5,7 L16.5,7 Z"/>
  </defs>
  <g fill="none" fill-rule="evenodd">
    <mask id="b" fill="white">
      <use xlink:href="#a"/>
    </mask>
    <rect width="24" height="24" fill="#8360E3" mask="url(#b)"/>
  </g>
</svg>
